<?xml version="1.0" encoding="UTF-8" standalone="no"?>
<!DOCTYPE svg PUBLIC "-//W3C//DTD SVG 1.1//EN"
 "http://www.w3.org/Graphics/SVG/1.1/DTD/svg11.dtd">
<!-- Generated by graphviz version 2.47.3 (20210619.1520)
 -->
<!-- Title: dependencies Pages: 1 -->
<svg width="1158pt" height="247pt"
 viewBox="0.00 0.00 1158.00 246.80" xmlns="http://www.w3.org/2000/svg" xmlns:xlink="http://www.w3.org/1999/xlink">
<g id="graph0" class="graph" transform="scale(1 1) rotate(0) translate(4 242.8)">
<title>dependencies</title>
<polygon fill="white" stroke="transparent" points="-4,4 -4,-242.8 1154,-242.8 1154,4 -4,4"/>
<text text-anchor="middle" x="575" y="-8.2" font-family="sans-serif" font-size="14.00">dependencies</text>
<g id="clust1" class="cluster">
<title>cluster_AppModule</title>
<polygon fill="none" stroke="black" stroke-dasharray="1,5" points="8,-32.8 8,-230.8 1142,-230.8 1142,-32.8 8,-32.8"/>
</g>
<g id="clust10" class="cluster">
<title>cluster_AppModule_imports</title>
<polygon fill="none" stroke="black" points="990,-40.8 990,-92.8 1134,-92.8 1134,-40.8 990,-40.8"/>
</g>
<g id="clust12" class="cluster">
<title>cluster_AppModule_bootstrap</title>
<polygon fill="none" stroke="black" points="530,-170.8 530,-222.8 654,-222.8 654,-170.8 530,-170.8"/>
</g>
<g id="clust2" class="cluster">
<title>cluster_AppModule_declarations</title>
<polygon fill="none" stroke="black" points="16,-40.8 16,-92.8 982,-92.8 982,-40.8 16,-40.8"/>
</g>
<!-- AppComponent -->
<g id="node1" class="node">
<title>AppComponent</title>
<polygon fill="#ffffb3" stroke="black" points="973.94,-84.8 868.06,-84.8 868.06,-48.8 973.94,-48.8 973.94,-84.8"/>
<text text-anchor="middle" x="921" y="-62.6" font-family="Times,serif" font-size="14.00">AppComponent</text>
</g>
<!-- AppModule -->
<g id="node8" class="node">
<title>AppModule</title>
<polygon fill="#8dd3c7" stroke="black" points="633.66,-149.8 630.66,-153.8 609.66,-153.8 606.66,-149.8 550.34,-149.8 550.34,-113.8 633.66,-113.8 633.66,-149.8"/>
<text text-anchor="middle" x="592" y="-127.6" font-family="Times,serif" font-size="14.00">AppModule</text>
</g>
<!-- AppComponent&#45;&gt;AppModule -->
<g id="edge1" class="edge">
<title>AppComponent&#45;&gt;AppModule</title>
<path fill="none" stroke="black" d="M921,-84.91C921,-104.14 921,-131.8 921,-131.8 921,-131.8 643.67,-131.8 643.67,-131.8"/>
<polygon fill="black" stroke="black" points="643.67,-128.3 633.67,-131.8 643.67,-135.3 643.67,-128.3"/>
</g>
<!-- ErrorComponent -->
<g id="node2" class="node">
<title>ErrorComponent</title>
<polygon fill="#ffffb3" stroke="black" points="850.37,-84.8 739.63,-84.8 739.63,-48.8 850.37,-48.8 850.37,-84.8"/>
<text text-anchor="middle" x="795" y="-62.6" font-family="Times,serif" font-size="14.00">ErrorComponent</text>
</g>
<!-- ErrorComponent&#45;&gt;AppModule -->
<g id="edge2" class="edge">
<title>ErrorComponent&#45;&gt;AppModule</title>
<path fill="none" stroke="black" d="M795,-84.83C795,-101.2 795,-122.8 795,-122.8 795,-122.8 644.06,-122.8 644.06,-122.8"/>
<polygon fill="black" stroke="black" points="644.06,-119.3 634.06,-122.8 644.06,-126.3 644.06,-119.3"/>
</g>
<!-- HeaderComponent -->
<g id="node3" class="node">
<title>HeaderComponent</title>
<polygon fill="#ffffb3" stroke="black" points="721.74,-84.8 600.26,-84.8 600.26,-48.8 721.74,-48.8 721.74,-84.8"/>
<text text-anchor="middle" x="661" y="-62.6" font-family="Times,serif" font-size="14.00">HeaderComponent</text>
</g>
<!-- HeaderComponent&#45;&gt;AppModule -->
<g id="edge3" class="edge">
<title>HeaderComponent&#45;&gt;AppModule</title>
<path fill="none" stroke="black" d="M616.98,-84.91C616.98,-84.91 616.98,-103.79 616.98,-103.79"/>
<polygon fill="black" stroke="black" points="613.48,-103.79 616.98,-113.79 620.48,-103.79 613.48,-103.79"/>
</g>
<!-- HomeComponent -->
<g id="node4" class="node">
<title>HomeComponent</title>
<polygon fill="#ffffb3" stroke="black" points="581.55,-84.8 466.45,-84.8 466.45,-48.8 581.55,-48.8 581.55,-84.8"/>
<text text-anchor="middle" x="524" y="-62.6" font-family="Times,serif" font-size="14.00">HomeComponent</text>
</g>
<!-- HomeComponent&#45;&gt;AppModule -->
<g id="edge4" class="edge">
<title>HomeComponent&#45;&gt;AppModule</title>
<path fill="none" stroke="black" d="M565.97,-84.91C565.97,-84.91 565.97,-103.79 565.97,-103.79"/>
<polygon fill="black" stroke="black" points="562.47,-103.79 565.97,-113.79 569.47,-103.79 562.47,-103.79"/>
</g>
<!-- ModalComponent -->
<g id="node5" class="node">
<title>ModalComponent</title>
<polygon fill="#ffffb3" stroke="black" points="447.88,-84.8 330.12,-84.8 330.12,-48.8 447.88,-48.8 447.88,-84.8"/>
<text text-anchor="middle" x="389" y="-62.6" font-family="Times,serif" font-size="14.00">ModalComponent</text>
</g>
<!-- ModalComponent&#45;&gt;AppModule -->
<g id="edge5" class="edge">
<title>ModalComponent&#45;&gt;AppModule</title>
<path fill="none" stroke="black" d="M389,-84.83C389,-101.2 389,-122.8 389,-122.8 389,-122.8 539.94,-122.8 539.94,-122.8"/>
<polygon fill="black" stroke="black" points="539.94,-126.3 549.94,-122.8 539.94,-119.3 539.94,-126.3"/>
</g>
<!-- ReadmeComponent -->
<g id="node6" class="node">
<title>ReadmeComponent</title>
<polygon fill="#ffffb3" stroke="black" points="311.7,-84.8 184.3,-84.8 184.3,-48.8 311.7,-48.8 311.7,-84.8"/>
<text text-anchor="middle" x="248" y="-62.6" font-family="Times,serif" font-size="14.00">ReadmeComponent</text>
</g>
<!-- ReadmeComponent&#45;&gt;AppModule -->
<g id="edge6" class="edge">
<title>ReadmeComponent&#45;&gt;AppModule</title>
<path fill="none" stroke="black" d="M248,-84.91C248,-104.14 248,-131.8 248,-131.8 248,-131.8 540.16,-131.8 540.16,-131.8"/>
<polygon fill="black" stroke="black" points="540.16,-135.3 550.16,-131.8 540.16,-128.3 540.16,-135.3"/>
</g>
<!-- ShowDaysComponent -->
<g id="node7" class="node">
<title>ShowDaysComponent</title>
<polygon fill="#ffffb3" stroke="black" points="165.99,-84.8 24.01,-84.8 24.01,-48.8 165.99,-48.8 165.99,-84.8"/>
<text text-anchor="middle" x="95" y="-62.6" font-family="Times,serif" font-size="14.00">ShowDaysComponent</text>
</g>
<!-- ShowDaysComponent&#45;&gt;AppModule -->
<g id="edge7" class="edge">
<title>ShowDaysComponent&#45;&gt;AppModule</title>
<path fill="none" stroke="black" d="M95,-85.09C95,-107.01 95,-140.8 95,-140.8 95,-140.8 540.05,-140.8 540.05,-140.8"/>
<polygon fill="black" stroke="black" points="540.05,-144.3 550.05,-140.8 540.05,-137.3 540.05,-144.3"/>
</g>
<!-- AppComponent  -->
<g id="node10" class="node">
<title>AppComponent </title>
<polygon fill="#80b1d3" stroke="black" points="646.44,-214.8 537.56,-214.8 537.56,-178.8 646.44,-178.8 646.44,-214.8"/>
<text text-anchor="middle" x="592" y="-192.6" font-family="Times,serif" font-size="14.00">AppComponent </text>
</g>
<!-- AppModule&#45;&gt;AppComponent  -->
<g id="edge9" class="edge">
<title>AppModule&#45;&gt;AppComponent </title>
<path fill="none" stroke="black" stroke-dasharray="1,5" d="M592,-149.91C592,-149.91 592,-168.79 592,-168.79"/>
<polygon fill="black" stroke="black" points="588.5,-168.79 592,-178.79 595.5,-168.79 588.5,-168.79"/>
</g>
<!-- AppRoutingModule -->
<g id="node9" class="node">
<title>AppRoutingModule</title>
<polygon fill="#8dd3c7" stroke="black" points="1126.27,-84.8 1123.27,-88.8 1102.27,-88.8 1099.27,-84.8 997.73,-84.8 997.73,-48.8 1126.27,-48.8 1126.27,-84.8"/>
<text text-anchor="middle" x="1062" y="-62.6" font-family="Times,serif" font-size="14.00">AppRoutingModule</text>
</g>
<!-- AppRoutingModule&#45;&gt;AppModule -->
<g id="edge8" class="edge">
<title>AppRoutingModule&#45;&gt;AppModule</title>
<path fill="none" stroke="black" d="M1062,-85.09C1062,-107.01 1062,-140.8 1062,-140.8 1062,-140.8 643.71,-140.8 643.71,-140.8"/>
<polygon fill="black" stroke="black" points="643.71,-137.3 633.71,-140.8 643.71,-144.3 643.71,-137.3"/>
</g>
</g>
</svg>
