<?xml version="1.0" encoding="UTF-8" standalone="no"?>
<!DOCTYPE svg PUBLIC "-//W3C//DTD SVG 1.1//EN"
 "http://www.w3.org/Graphics/SVG/1.1/DTD/svg11.dtd">
<!-- Generated by graphviz version 2.47.3 (20210619.1520)
 -->
<!-- Title: dependencies Pages: 1 -->
<svg width="1158pt" height="247pt"
 viewBox="0.00 0.00 1158.00 246.80" xmlns="http://www.w3.org/2000/svg" xmlns:xlink="http://www.w3.org/1999/xlink">
<g id="graph0" class="graph" transform="scale(1 1) rotate(0) translate(4 242.8)">
<title>dependencies</title>
<polygon fill="white" stroke="transparent" points="-4,4 -4,-242.8 1154,-242.8 1154,4 -4,4"/>
<text text-anchor="middle" x="575" y="-8.2" font-family="sans-serif" font-size="14.00">dependencies</text>
<g id="clust1" class="cluster">
<title>cluster_AppModule</title>
<polygon fill="none" stroke="black" stroke-dasharray="1,5" points="8,-32.8 8,-230.8 1142,-230.8 1142,-32.8 8,-32.8"/>
</g>
<g id="clust2" class="cluster">
<title>cluster_AppModule_declarations</title>
<polygon fill="none" stroke="black" points="168,-40.8 168,-92.8 1134,-92.8 1134,-40.8 168,-40.8"/>
</g>
<g id="clust10" class="cluster">
<title>cluster_AppModule_imports</title>
<polygon fill="none" stroke="black" points="16,-40.8 16,-92.8 160,-92.8 160,-40.8 16,-40.8"/>
</g>
<g id="clust12" class="cluster">
<title>cluster_AppModule_bootstrap</title>
<polygon fill="none" stroke="black" points="546,-170.8 546,-222.8 670,-222.8 670,-170.8 546,-170.8"/>
</g>
<!-- AppComponent -->
<g id="node1" class="node">
<title>AppComponent</title>
<polygon fill="#ffffb3" stroke="black" points="1125.94,-84.8 1020.06,-84.8 1020.06,-48.8 1125.94,-48.8 1125.94,-84.8"/>
<text text-anchor="middle" x="1073" y="-62.6" font-family="Times,serif" font-size="14.00">AppComponent</text>
</g>
<!-- AppModule -->
<g id="node8" class="node">
<title>AppModule</title>
<polygon fill="#8dd3c7" stroke="black" points="649.66,-149.8 646.66,-153.8 625.66,-153.8 622.66,-149.8 566.34,-149.8 566.34,-113.8 649.66,-113.8 649.66,-149.8"/>
<text text-anchor="middle" x="608" y="-127.6" font-family="Times,serif" font-size="14.00">AppModule</text>
</g>
<!-- AppComponent&#45;&gt;AppModule -->
<g id="edge1" class="edge">
<title>AppComponent&#45;&gt;AppModule</title>
<path fill="none" stroke="black" d="M1073,-85.09C1073,-107.01 1073,-140.8 1073,-140.8 1073,-140.8 659.67,-140.8 659.67,-140.8"/>
<polygon fill="black" stroke="black" points="659.67,-137.3 649.67,-140.8 659.67,-144.3 659.67,-137.3"/>
</g>
<!-- ErrorComponent -->
<g id="node2" class="node">
<title>ErrorComponent</title>
<polygon fill="#ffffb3" stroke="black" points="1002.37,-84.8 891.63,-84.8 891.63,-48.8 1002.37,-48.8 1002.37,-84.8"/>
<text text-anchor="middle" x="947" y="-62.6" font-family="Times,serif" font-size="14.00">ErrorComponent</text>
</g>
<!-- ErrorComponent&#45;&gt;AppModule -->
<g id="edge2" class="edge">
<title>ErrorComponent&#45;&gt;AppModule</title>
<path fill="none" stroke="black" d="M947,-84.91C947,-104.14 947,-131.8 947,-131.8 947,-131.8 659.91,-131.8 659.91,-131.8"/>
<polygon fill="black" stroke="black" points="659.91,-128.3 649.91,-131.8 659.91,-135.3 659.91,-128.3"/>
</g>
<!-- HeaderComponent -->
<g id="node3" class="node">
<title>HeaderComponent</title>
<polygon fill="#ffffb3" stroke="black" points="873.74,-84.8 752.26,-84.8 752.26,-48.8 873.74,-48.8 873.74,-84.8"/>
<text text-anchor="middle" x="813" y="-62.6" font-family="Times,serif" font-size="14.00">HeaderComponent</text>
</g>
<!-- HeaderComponent&#45;&gt;AppModule -->
<g id="edge3" class="edge">
<title>HeaderComponent&#45;&gt;AppModule</title>
<path fill="none" stroke="black" d="M813,-84.83C813,-101.2 813,-122.8 813,-122.8 813,-122.8 659.98,-122.8 659.98,-122.8"/>
<polygon fill="black" stroke="black" points="659.98,-119.3 649.98,-122.8 659.98,-126.3 659.98,-119.3"/>
</g>
<!-- HomeComponent -->
<g id="node4" class="node">
<title>HomeComponent</title>
<polygon fill="#ffffb3" stroke="black" points="733.55,-84.8 618.45,-84.8 618.45,-48.8 733.55,-48.8 733.55,-84.8"/>
<text text-anchor="middle" x="676" y="-62.6" font-family="Times,serif" font-size="14.00">HomeComponent</text>
</g>
<!-- HomeComponent&#45;&gt;AppModule -->
<g id="edge4" class="edge">
<title>HomeComponent&#45;&gt;AppModule</title>
<path fill="none" stroke="black" d="M634.03,-84.91C634.03,-84.91 634.03,-103.79 634.03,-103.79"/>
<polygon fill="black" stroke="black" points="630.53,-103.79 634.03,-113.79 637.53,-103.79 630.53,-103.79"/>
</g>
<!-- ModalComponent -->
<g id="node5" class="node">
<title>ModalComponent</title>
<polygon fill="#ffffb3" stroke="black" points="599.88,-84.8 482.12,-84.8 482.12,-48.8 599.88,-48.8 599.88,-84.8"/>
<text text-anchor="middle" x="541" y="-62.6" font-family="Times,serif" font-size="14.00">ModalComponent</text>
</g>
<!-- ModalComponent&#45;&gt;AppModule -->
<g id="edge5" class="edge">
<title>ModalComponent&#45;&gt;AppModule</title>
<path fill="none" stroke="black" d="M583.06,-84.91C583.06,-84.91 583.06,-103.79 583.06,-103.79"/>
<polygon fill="black" stroke="black" points="579.56,-103.79 583.06,-113.79 586.56,-103.79 579.56,-103.79"/>
</g>
<!-- ReadmeComponent -->
<g id="node6" class="node">
<title>ReadmeComponent</title>
<polygon fill="#ffffb3" stroke="black" points="463.7,-84.8 336.3,-84.8 336.3,-48.8 463.7,-48.8 463.7,-84.8"/>
<text text-anchor="middle" x="400" y="-62.6" font-family="Times,serif" font-size="14.00">ReadmeComponent</text>
</g>
<!-- ReadmeComponent&#45;&gt;AppModule -->
<g id="edge6" class="edge">
<title>ReadmeComponent&#45;&gt;AppModule</title>
<path fill="none" stroke="black" d="M400,-84.83C400,-101.2 400,-122.8 400,-122.8 400,-122.8 555.91,-122.8 555.91,-122.8"/>
<polygon fill="black" stroke="black" points="555.91,-126.3 565.91,-122.8 555.91,-119.3 555.91,-126.3"/>
</g>
<!-- ShowDaysComponent -->
<g id="node7" class="node">
<title>ShowDaysComponent</title>
<polygon fill="#ffffb3" stroke="black" points="317.99,-84.8 176.01,-84.8 176.01,-48.8 317.99,-48.8 317.99,-84.8"/>
<text text-anchor="middle" x="247" y="-62.6" font-family="Times,serif" font-size="14.00">ShowDaysComponent</text>
</g>
<!-- ShowDaysComponent&#45;&gt;AppModule -->
<g id="edge7" class="edge">
<title>ShowDaysComponent&#45;&gt;AppModule</title>
<path fill="none" stroke="black" d="M247,-84.91C247,-104.14 247,-131.8 247,-131.8 247,-131.8 556.24,-131.8 556.24,-131.8"/>
<polygon fill="black" stroke="black" points="556.24,-135.3 566.24,-131.8 556.24,-128.3 556.24,-135.3"/>
</g>
<!-- AppComponent  -->
<g id="node10" class="node">
<title>AppComponent </title>
<polygon fill="#80b1d3" stroke="black" points="662.44,-214.8 553.56,-214.8 553.56,-178.8 662.44,-178.8 662.44,-214.8"/>
<text text-anchor="middle" x="608" y="-192.6" font-family="Times,serif" font-size="14.00">AppComponent </text>
</g>
<!-- AppModule&#45;&gt;AppComponent  -->
<g id="edge9" class="edge">
<title>AppModule&#45;&gt;AppComponent </title>
<path fill="none" stroke="black" stroke-dasharray="1,5" d="M608,-149.91C608,-149.91 608,-168.79 608,-168.79"/>
<polygon fill="black" stroke="black" points="604.5,-168.79 608,-178.79 611.5,-168.79 604.5,-168.79"/>
</g>
<!-- AppRoutingModule -->
<g id="node9" class="node">
<title>AppRoutingModule</title>
<polygon fill="#8dd3c7" stroke="black" points="152.27,-84.8 149.27,-88.8 128.27,-88.8 125.27,-84.8 23.73,-84.8 23.73,-48.8 152.27,-48.8 152.27,-84.8"/>
<text text-anchor="middle" x="88" y="-62.6" font-family="Times,serif" font-size="14.00">AppRoutingModule</text>
</g>
<!-- AppRoutingModule&#45;&gt;AppModule -->
<g id="edge8" class="edge">
<title>AppRoutingModule&#45;&gt;AppModule</title>
<path fill="none" stroke="black" d="M88,-85.09C88,-107.01 88,-140.8 88,-140.8 88,-140.8 556.33,-140.8 556.33,-140.8"/>
<polygon fill="black" stroke="black" points="556.33,-144.3 566.33,-140.8 556.33,-137.3 556.33,-144.3"/>
</g>
</g>
</svg>
